<svg width="180" height="180" viewBox="0 0 180 180" fill="none" xmlns="http://www.w3.org/2000/svg">
<path d="M180 90C180 139.706 139.706 180 90 180C40.2942 180 0 139.706 0 90C0 40.2942 40.2942 0 90 0C139.706 0 180 40.2942 180 90ZM79.5898 137.654L146.364 70.8801C148.631 68.6127 148.631 64.9361 146.364 62.6687L138.153 54.4573C135.885 52.1895 132.209 52.1895 129.941 54.4573L75.4839 108.914L50.0592 83.4892C47.7918 81.2217 44.1152 81.2217 41.8475 83.4892L33.636 91.7006C31.3686 93.968 31.3686 97.6446 33.636 99.912L71.378 137.654C73.6458 139.922 77.322 139.922 79.5898 137.654V137.654Z" fill="#FF5F21"/>
</svg>
