<svg width="180" height="180" viewBox="0 0 180 180" fill="none" xmlns="http://www.w3.org/2000/svg">
<rect width="180" height="180" fill="#05D68B"/>
<path d="M53.1 67.1904C57.8952 67.1904 62.0856 68.1408 65.6712 70.0416C69.2568 71.9424 72.0216 74.6208 73.9656 78.0768C75.9528 81.4896 76.9464 85.4424 76.9464 89.9352C76.9464 94.3848 75.9528 98.3376 73.9656 101.794C72.0216 105.25 69.2352 107.928 65.6064 109.829C62.0208 111.73 57.852 112.68 53.1 112.68H36.0576V67.1904H53.1ZM52.3872 103.09C56.5776 103.09 59.8392 101.945 62.172 99.6552C64.5048 97.3656 65.6712 94.1256 65.6712 89.9352C65.6712 85.7448 64.5048 82.4832 62.172 80.1504C59.8392 77.8176 56.5776 76.6512 52.3872 76.6512H47.1384V103.09H52.3872Z" fill="white"/>
<path d="M145.736 67.1904L133.877 112.68H120.464L113.206 82.7424L105.689 112.68H92.2757L80.7413 67.1904H92.5997L99.1445 100.303L107.244 67.1904H119.427L127.203 100.303L133.812 67.1904H145.736Z" fill="white"/>
</svg>
