<svg width="492" height="60" viewBox="0 0 492 60" fill="none" xmlns="http://www.w3.org/2000/svg">
<g clip-path="url(#clip0)">
<path d="M21.5217 3.75659C27.313 3.75659 32.3739 4.90442 36.7043 7.20007C41.0348 9.49572 44.3739 12.7305 46.7217 16.9044C49.1217 21.0262 50.3217 25.8001 50.3217 31.2262C50.3217 36.6001 49.1217 41.374 46.7217 45.5479C44.3739 49.7218 41.0087 52.9566 36.6261 55.2522C32.2956 57.5479 27.2609 58.6957 21.5217 58.6957H0.939117V3.75659H21.5217ZM20.6609 47.1131C25.7217 47.1131 29.6609 45.7305 32.4782 42.9653C35.2956 40.2001 36.7043 36.287 36.7043 31.2262C36.7043 26.1653 35.2956 22.2262 32.4782 19.4088C29.6609 16.5914 25.7217 15.1827 20.6609 15.1827H14.3217V47.1131H20.6609ZM71.1832 22.3044C72.7484 19.9044 74.7049 18.0262 77.0528 16.6696C79.4006 15.2609 82.0093 14.5566 84.8789 14.5566V28.7218H81.2006C77.8615 28.7218 75.3571 29.4522 73.6876 30.9131C72.018 32.3218 71.1832 34.8262 71.1832 38.4262V58.6957H57.8006V15.0262H71.1832V22.3044ZM111.154 59.3218C106.875 59.3218 103.015 58.4088 99.571 56.5827C96.1797 54.7566 93.4928 52.1479 91.5102 48.7566C89.5797 45.3653 88.6145 41.4001 88.6145 36.8609C88.6145 32.374 89.6058 28.4349 91.5884 25.0435C93.571 21.6001 96.2841 18.9653 99.7276 17.1392C103.171 15.3131 107.032 14.4001 111.31 14.4001C115.588 14.4001 119.449 15.3131 122.893 17.1392C126.336 18.9653 129.049 21.6001 131.032 25.0435C133.015 28.4349 134.006 32.374 134.006 36.8609C134.006 41.3479 132.989 45.3131 130.954 48.7566C128.971 52.1479 126.232 54.7566 122.736 56.5827C119.293 58.4088 115.432 59.3218 111.154 59.3218ZM111.154 47.7392C113.71 47.7392 115.875 46.8001 117.649 44.9218C119.475 43.0435 120.388 40.3566 120.388 36.8609C120.388 33.3653 119.501 30.6783 117.728 28.8001C116.006 26.9218 113.867 25.9827 111.31 25.9827C108.701 25.9827 106.536 26.9218 104.815 28.8001C103.093 30.6262 102.232 33.3131 102.232 36.8609C102.232 40.3566 103.067 43.0435 104.736 44.9218C106.458 46.8001 108.597 47.7392 111.154 47.7392ZM167.714 14.5566C172.827 14.5566 176.897 16.2262 179.923 19.5653C183.001 22.8522 184.54 27.3914 184.54 33.1827V58.6957H171.236V34.9827C171.236 32.0609 170.48 29.7914 168.967 28.174C167.453 26.5566 165.419 25.7479 162.862 25.7479C160.306 25.7479 158.271 26.5566 156.758 28.174C155.245 29.7914 154.488 32.0609 154.488 34.9827V58.6957H141.106V15.0262H154.488V20.8175C155.845 18.887 157.671 17.374 159.967 16.2783C162.262 15.1305 164.845 14.5566 167.714 14.5566ZM235.006 36.1566C235.006 37.4088 234.927 38.7131 234.771 40.0696H204.484C204.693 42.7827 205.553 44.8696 207.067 46.3305C208.632 47.7392 210.536 48.4435 212.78 48.4435C216.119 48.4435 218.44 47.0349 219.745 44.2175H233.988C233.258 47.087 231.927 49.6696 229.997 51.9653C228.119 54.2609 225.745 56.0609 222.875 57.3653C220.006 58.6696 216.797 59.3218 213.249 59.3218C208.971 59.3218 205.162 58.4088 201.823 56.5827C198.484 54.7566 195.875 52.1479 193.997 48.7566C192.119 45.3653 191.18 41.4001 191.18 36.8609C191.18 32.3218 192.093 28.3566 193.919 24.9653C195.797 21.574 198.406 18.9653 201.745 17.1392C205.084 15.3131 208.919 14.4001 213.249 14.4001C217.475 14.4001 221.232 15.287 224.519 17.0609C227.806 18.8349 230.362 21.3653 232.188 24.6522C234.067 27.9392 235.006 31.774 235.006 36.1566ZM221.31 32.6349C221.31 30.3392 220.527 28.5131 218.962 27.1566C217.397 25.8001 215.44 25.1218 213.093 25.1218C210.849 25.1218 208.945 25.774 207.38 27.0783C205.867 28.3827 204.927 30.2349 204.562 32.6349H221.31Z" fill="white"/>
<path d="M317.665 3.75663L303.343 58.6958H287.143L278.378 22.5392L269.3 58.6958H253.1L239.169 3.75663H253.491L261.395 43.7479L271.178 3.75663H285.891L295.282 43.7479L303.265 3.75663H317.665ZM344.255 59.3218C339.977 59.3218 336.116 58.4088 332.673 56.5827C329.281 54.7566 326.594 52.1479 324.612 48.7566C322.681 45.3653 321.716 41.4001 321.716 36.861C321.716 32.374 322.707 28.4349 324.69 25.0436C326.673 21.6001 329.386 18.9653 332.829 17.1392C336.273 15.3132 340.134 14.4001 344.412 14.4001C348.69 14.4001 352.551 15.3132 355.994 17.1392C359.438 18.9653 362.151 21.6001 364.134 25.0436C366.116 28.4349 367.107 32.374 367.107 36.861C367.107 41.3479 366.09 45.3132 364.055 48.7566C362.073 52.1479 359.334 54.7566 355.838 56.5827C352.394 58.4088 348.534 59.3218 344.255 59.3218ZM344.255 47.7392C346.812 47.7392 348.977 46.8001 350.751 44.9218C352.577 43.0436 353.49 40.3566 353.49 36.861C353.49 33.3653 352.603 30.6784 350.829 28.8001C349.107 26.9218 346.968 25.9827 344.412 25.9827C341.803 25.9827 339.638 26.9218 337.916 28.8001C336.194 30.6262 335.334 33.3132 335.334 36.861C335.334 40.3566 336.168 43.0436 337.838 44.9218C339.56 46.8001 341.699 47.7392 344.255 47.7392ZM387.59 22.3045C389.155 19.9045 391.111 18.0262 393.459 16.6697C395.807 15.261 398.416 14.5566 401.285 14.5566V28.7218H397.607C394.268 28.7218 391.764 29.4523 390.094 30.9132C388.424 32.3218 387.59 34.8262 387.59 38.4262V58.6958H374.207V15.0262H387.59V22.3045ZM434.369 58.6958L421.064 40.3827V58.6958H407.682V0.782715H421.064V32.7914L434.29 15.0262H450.804L432.647 36.9392L450.96 58.6958H434.369ZM473.825 59.3218C470.017 59.3218 466.625 58.6697 463.651 57.3653C460.677 56.061 458.33 54.2871 456.608 52.0436C454.886 49.7479 453.921 47.1914 453.712 44.374H466.938C467.095 45.8871 467.799 47.1131 469.051 48.0523C470.303 48.9914 471.843 49.461 473.669 49.461C475.338 49.461 476.617 49.1479 477.504 48.5218C478.443 47.8436 478.912 46.9827 478.912 45.9392C478.912 44.6871 478.26 43.774 476.956 43.2001C475.651 42.574 473.538 41.8958 470.617 41.1653C467.486 40.4349 464.877 39.6784 462.79 38.8958C460.704 38.061 458.903 36.7827 457.39 35.061C455.877 33.2871 455.121 30.9132 455.121 27.9392C455.121 25.4349 455.799 23.1653 457.156 21.1305C458.564 19.0436 460.599 17.4001 463.26 16.2001C465.973 15.0001 469.182 14.4001 472.886 14.4001C478.364 14.4001 482.669 15.7566 485.799 18.4697C488.982 21.1827 490.808 24.7827 491.277 29.2697H478.912C478.703 27.7566 478.025 26.5566 476.877 25.6697C475.782 24.7827 474.321 24.3392 472.495 24.3392C470.93 24.3392 469.73 24.6523 468.895 25.2784C468.06 25.8523 467.643 26.661 467.643 27.7045C467.643 28.9566 468.295 29.8958 469.599 30.5218C470.956 31.1479 473.043 31.774 475.86 32.4001C479.095 33.2349 481.73 34.0697 483.764 34.9045C485.799 35.6871 487.573 36.9914 489.086 38.8175C490.651 40.5914 491.46 42.9914 491.512 46.0175C491.512 48.574 490.782 50.8697 489.321 52.9045C487.912 54.8871 485.851 56.4523 483.138 57.6001C480.477 58.7479 477.373 59.3218 473.825 59.3218Z" fill="#05D68B"/>
</g>
<defs>
<clipPath id="clip0">
<rect width="491.739" height="60" fill="white"/>
</clipPath>
</defs>
</svg>
