<svg xmlns="http://www.w3.org/2000/svg" xmlns:xlink="http://www.w3.org/1999/xlink" width="768" height="432" viewBox="0 0 768 432"><rect width="100%" height="100%" fill="#DDDDDD"/><path d="M150.19 178.04L202.64 178.04L202.64 183.66Q202.64 186.18 202.11 187.73Q201.59 189.28 201.06 190.33L201.06 190.33L172.29 249.55Q171.40 251.38 169.77 252.67Q168.15 253.96 165.42 253.96L165.42 253.96L156.02 253.96L185.37 195.94Q186.36 194.16 187.34 192.66Q188.31 191.17 189.51 189.80L189.51 189.80L153.18 189.80Q151.98 189.80 151.08 188.91Q150.19 188.02 150.19 186.81L150.19 186.81L150.19 178.04ZM256.14 178.04L233.61 205.60L230.99 208.86Q233.19 207.76 235.74 207.15Q238.29 206.55 241.23 206.55L241.23 206.55Q245.53 206.55 249.60 207.97Q253.67 209.38 256.77 212.25Q259.86 215.11 261.75 219.36Q263.64 223.61 263.64 229.28L263.64 229.28Q263.64 234.58 261.70 239.23Q259.76 243.88 256.24 247.34Q252.72 250.81 247.76 252.80Q242.80 254.80 236.82 254.80L236.82 254.80Q230.73 254.80 225.90 252.85Q221.07 250.91 217.65 247.42Q214.24 243.93 212.43 239.02Q210.62 234.11 210.62 228.13L210.62 228.13Q210.62 222.77 212.80 217.13Q214.98 211.48 219.54 205.39L219.54 205.39L237.66 181.09Q238.60 179.83 240.41 178.94Q242.22 178.04 244.59 178.04L244.59 178.04L256.14 178.04ZM236.55 244.19L236.55 244.19Q239.65 244.19 242.25 243.14Q244.85 242.09 246.71 240.20Q248.58 238.31 249.63 235.77Q250.68 233.22 250.68 230.23L250.68 230.23Q250.68 226.97 249.68 224.37Q248.68 221.77 246.84 219.96Q245.01 218.15 242.43 217.21Q239.86 216.26 236.76 216.26L236.76 216.26Q233.67 216.26 231.15 217.31Q228.63 218.36 226.84 220.23Q225.06 222.09 224.06 224.64Q223.06 227.18 223.06 230.12L223.06 230.12Q223.06 233.27 223.93 235.87Q224.79 238.47 226.50 240.31Q228.21 242.14 230.73 243.17Q233.25 244.19 236.55 244.19ZM297.56 244.66L297.56 244.66Q300.76 244.66 303.18 243.75Q305.59 242.83 307.25 241.20Q308.90 239.57 309.74 237.31Q310.58 235.06 310.58 232.43L310.58 232.43Q310.58 226.18 307.11 222.98Q303.65 219.78 297.56 219.78L297.56 219.78Q291.47 219.78 288.00 222.98Q284.54 226.18 284.54 232.43L284.54 232.43Q284.54 235.06 285.38 237.31Q286.22 239.57 287.87 241.20Q289.53 242.83 291.94 243.75Q294.36 244.66 297.56 244.66ZM297.56 186.97L297.56 186.97Q294.67 186.97 292.57 187.86Q290.47 188.75 289.08 190.25Q287.69 191.74 287.03 193.69Q286.38 195.63 286.38 197.78L286.38 197.78Q286.38 200.04 286.93 202.17Q287.48 204.29 288.79 205.95Q290.10 207.60 292.26 208.60Q294.41 209.59 297.56 209.59L297.56 209.59Q300.71 209.59 302.86 208.60Q305.01 207.60 306.33 205.95Q307.64 204.29 308.19 202.17Q308.74 200.04 308.74 197.78L308.74 197.78Q308.74 195.63 308.06 193.69Q307.38 191.74 306.01 190.25Q304.65 188.75 302.55 187.86Q300.45 186.97 297.56 186.97ZM310.37 214.37L310.37 214.37Q317.30 216.63 320.61 221.28Q323.91 225.92 323.91 232.64L323.91 232.64Q323.91 237.68 322.00 241.78Q320.08 245.87 316.62 248.76Q313.15 251.65 308.30 253.22Q303.44 254.80 297.56 254.80L297.56 254.80Q291.68 254.80 286.82 253.22Q281.97 251.65 278.50 248.76Q275.04 245.87 273.12 241.78Q271.20 237.68 271.20 232.64L271.20 232.64Q271.20 225.92 274.51 221.28Q277.82 216.63 284.75 214.37L284.75 214.37Q279.24 212.06 276.48 207.81Q273.72 203.56 273.72 197.57L273.72 197.57Q273.72 193.27 275.48 189.54Q277.24 185.81 280.39 183.06Q283.54 180.30 287.93 178.75Q292.31 177.20 297.56 177.20L297.56 177.20Q302.81 177.20 307.19 178.75Q311.58 180.30 314.73 183.06Q317.88 185.81 319.64 189.54Q321.39 193.27 321.39 197.57L321.39 197.57Q321.39 203.56 318.64 207.81Q315.88 212.06 310.37 214.37ZM408.75 236.58L401.88 243.35L384.08 225.55L366.12 243.46L359.25 236.68L377.20 218.68L360.09 201.56L366.91 194.74L384.03 211.85L401.04 194.84L407.97 201.67L390.90 218.73L408.75 236.58ZM454.22 225.34L477.32 225.34L477.32 200.51Q477.32 196.99 477.79 192.74L477.79 192.74L454.22 225.34ZM488.61 225.34L498.16 225.34L498.16 232.85Q498.16 233.90 497.48 234.66Q496.80 235.42 495.54 235.42L495.54 235.42L488.61 235.42L488.61 253.96L477.32 253.96L477.32 235.42L445.29 235.42Q443.98 235.42 442.98 234.61Q441.99 233.80 441.72 232.59L441.72 232.59L440.36 226.03L476.32 177.99L488.61 177.99L488.61 225.34ZM513.33 200.41L506.51 199.20Q507.30 193.74 509.55 189.62Q511.81 185.50 515.20 182.74Q518.58 179.98 522.97 178.59Q527.35 177.20 532.39 177.20L532.39 177.20Q537.64 177.20 541.87 178.70Q546.09 180.19 549.09 182.85Q552.08 185.50 553.68 189.07Q555.28 192.64 555.28 196.78L555.28 196.78Q555.28 200.41 554.47 203.16Q553.65 205.92 552.13 207.97Q550.61 210.01 548.35 211.43Q546.09 212.85 543.26 213.79L543.26 213.79Q550.08 215.95 553.44 220.36Q556.80 224.77 556.80 231.43L556.80 231.43Q556.80 237.10 554.70 241.46Q552.60 245.82 549.03 248.79Q545.46 251.75 540.76 253.27Q536.07 254.80 530.82 254.80L530.82 254.80Q525.09 254.80 520.84 253.48Q516.59 252.17 513.44 249.60Q510.29 247.03 508.08 243.30Q505.88 239.57 504.30 234.69L504.30 234.69L510.03 232.33Q512.28 231.38 514.25 231.83Q516.22 232.27 517.11 233.95L517.11 233.95Q518.06 235.79 519.19 237.58Q520.32 239.36 521.89 240.75Q523.47 242.14 525.59 243.01Q527.72 243.88 530.66 243.88L530.66 243.88Q533.97 243.88 536.43 242.80Q538.90 241.72 540.55 239.99Q542.21 238.26 543.02 236.13Q543.84 234.01 543.84 231.85L543.84 231.85Q543.84 229.12 543.26 226.89Q542.68 224.66 540.84 223.09Q539.01 221.51 535.57 220.62Q532.13 219.73 526.35 219.73L526.35 219.73L526.35 210.49Q531.13 210.43 534.28 209.59Q537.43 208.75 539.29 207.26Q541.16 205.76 541.89 203.66Q542.63 201.56 542.63 199.04L542.63 199.04Q542.63 193.69 539.64 190.90Q536.64 188.12 531.66 188.12L531.66 188.12Q529.35 188.12 527.40 188.78Q525.46 189.44 523.91 190.62Q522.36 191.80 521.31 193.37Q520.26 194.95 519.74 196.84L519.74 196.84Q518.85 199.25 517.40 200.04Q515.96 200.83 513.33 200.41L513.33 200.41ZM593.76 241.88L613.24 241.88Q615.34 241.88 616.57 243.06Q617.81 244.24 617.81 246.19L617.81 246.19L617.81 253.96L565.73 253.96L565.73 249.65Q565.73 248.34 566.28 246.90Q566.83 245.45 568.04 244.30L568.04 244.30L591.09 221.20Q593.97 218.26 596.26 215.58Q598.54 212.90 600.06 210.28Q601.59 207.65 602.40 204.95Q603.21 202.24 603.21 199.25L603.21 199.25Q603.21 196.52 602.43 194.45Q601.64 192.38 600.19 190.96Q598.75 189.54 596.73 188.83Q594.71 188.12 592.19 188.12L592.19 188.12Q589.88 188.12 587.91 188.78Q585.94 189.44 584.42 190.62Q582.90 191.80 581.85 193.37Q580.80 194.95 580.27 196.84L580.27 196.84Q579.38 199.25 577.96 200.04Q576.54 200.83 573.87 200.41L573.87 200.41L567.04 199.20Q567.83 193.74 570.09 189.62Q572.34 185.50 575.73 182.74Q579.12 179.98 583.50 178.59Q587.88 177.20 592.92 177.20L592.92 177.20Q598.17 177.20 602.53 178.75Q606.89 180.30 609.99 183.13Q613.08 185.97 614.82 189.96Q616.55 193.95 616.55 198.83L616.55 198.83Q616.55 203.03 615.31 206.60Q614.08 210.17 612.01 213.43Q609.93 216.68 607.15 219.73Q604.37 222.77 601.32 225.92L601.32 225.92L584.21 243.40Q586.68 242.67 589.12 242.28Q591.56 241.88 593.76 241.88L593.76 241.88Z" fill="#999999"/></svg>